# xmcd
#
# Track frame offsets:
#	150
#	16940
#	43512
#	65567
#	89056
#	115248
#	129117
#	146046
#	169743
#
# Disc length: 2599 seconds
#
# Revision: 1
# Processed by: cddbd v1.4PL0 Copyright (c) Steve Scherf et al.
# Submitted via: audiograbber 1.81.03
#
DISCID=780a2509
DTITLE=Memphis All-Stars - Blues Train
DYEAR=1998
DGENRE=Blues
TTITLE0=Ain't Nothing Better
TTITLE1=Lovely Memphis Day
TTITLE2=Blues Train
TTITLE3=When Love Walks Out The Door
TTITLE4=Good Man Down
TTITLE5=All-Star Shuffle
TTITLE6=Real Love
TTITLE7=That Special Someone
TTITLE8=Jesus On The Mainline
EXTD=
EXTT0=
EXTT1=
EXTT2=
EXTT3=
EXTT4=
EXTT5=
EXTT6=
EXTT7=
EXTT8=
PLAYORDER=
